<svg width="564" height="135" viewBox="0 0 564 135" fill="none" xmlns="http://www.w3.org/2000/svg">
<path d="M64.136 74.792C62.92 75.24 61.928 75.464 61.16 75.464C59.752 75.464 58.408 74.984 57.128 74.024C55.912 73.064 54.888 71.752 54.056 70.088L56.744 68.36C59.816 66.312 62.088 64.744 63.56 63.656C68.488 59.816 72.776 56.232 76.424 52.904C77.128 52.328 77.96 51.144 78.92 49.352L80.264 47.048L78.536 46.184C78.344 46.12 77.896 45.96 77.192 45.704C76.552 45.384 76.008 45.192 75.56 45.128C69.992 44.552 63.752 44.04 56.84 43.592C54.664 43.4 53.256 44.584 52.616 47.144L44.552 84.488C44.104 86.408 43.752 88.104 43.496 89.576C43.24 90.984 43.016 92.168 42.824 93.128L41.96 97.448C41.704 98.472 41.288 99.304 40.712 99.944C40.136 100.52 39.304 100.84 38.216 100.904L36.968 101C35.752 101 34.888 100.712 34.376 100.136C33.928 99.56 33.736 98.536 33.8 97.064L33.992 93.224C34.376 85.672 34.856 80.008 35.432 76.232C35.816 73.48 36.36 70.44 37.064 67.112C37.832 63.784 38.344 61.608 38.6 60.584C39.496 56.872 40.136 54.056 40.52 52.136L35.528 51.272C34.76 49.608 34.376 48.168 34.376 46.952C34.376 44.904 35.336 42.824 37.256 40.712C38.6 39.176 40.2 37.928 42.056 36.968C43.912 36.008 45.832 35.368 47.816 35.048C50.696 34.728 53.256 34.568 55.496 34.568C64.264 34.568 73.16 36.424 82.184 40.136C83.272 40.584 84.36 41.288 85.448 42.248C86.536 43.144 87.24 43.72 87.56 43.976C90.056 46.088 91.304 48.296 91.304 50.6C91.304 52.136 90.824 53.832 89.864 55.688C89.352 56.776 88.488 58.024 87.272 59.432C81.32 65.96 73.608 71.08 64.136 74.792ZM116.986 96.104C116.41 95.848 115.834 95.72 115.258 95.72C114.682 95.72 114.17 95.88 113.722 96.2C113.338 96.456 112.89 96.872 112.378 97.448C111.61 98.216 110.81 98.856 109.978 99.368C109.21 99.816 107.802 100.232 105.754 100.616C104.858 100.744 104.122 100.808 103.546 100.808C100.858 100.808 98.0423 100.232 95.0983 99.08C92.2183 97.864 90.1703 96.424 88.9543 94.76C87.6743 92.968 87.0663 91.048 87.1303 89C87.1943 85.928 88.4743 82.856 90.9703 79.784C93.4023 76.84 95.6103 74.76 97.5943 73.544C99.6423 72.328 102.426 71.56 105.946 71.24C106.714 71.24 107.802 71.112 109.21 70.856C110.682 70.6 111.418 70.248 111.418 69.8C111.418 68.904 111.002 68.104 110.17 67.4C109.402 66.632 107.802 66.248 105.37 66.248C104.474 66.248 103.13 66.312 101.338 66.44C99.5463 66.568 98.2983 66.632 97.5943 66.632C95.4183 66.632 93.8503 66.28 92.8903 65.576C92.6343 65.448 92.5063 64.84 92.5063 63.752C92.5063 61.832 93.1783 60.616 94.5223 60.104C97.2743 59.08 100.122 58.536 103.066 58.472C106.778 58.472 110.202 59.304 113.338 60.968C116.538 62.568 118.874 64.584 120.346 67.016C121.818 69.448 122.778 72.808 123.226 77.096C123.738 81.896 123.994 88.008 123.994 95.432C123.994 97.48 123.706 98.664 123.13 98.984C122.618 99.304 122.138 99.464 121.69 99.464C121.114 99.464 120.57 99.304 120.058 98.984C119.61 98.6 119.098 98.088 118.522 97.448C117.946 96.744 117.434 96.296 116.986 96.104ZM101.818 94.952C104.826 94.056 107.77 92.616 110.65 90.632C111.29 90.184 111.866 89.608 112.378 88.904C112.89 88.2 113.21 87.752 113.338 87.56C113.466 87.368 113.562 86.824 113.626 85.928C113.754 84.968 113.786 84.2 113.722 83.624C113.658 83.432 113.53 82.92 113.338 82.088C113.21 81.256 112.986 80.52 112.666 79.88C112.346 79.368 111.834 78.888 111.13 78.44C110.426 77.992 109.786 77.8 109.21 77.864C107.994 77.928 106.682 78.376 105.274 79.208C103.866 80.04 102.554 81.16 101.338 82.568C100.122 84.04 99.1623 85.544 98.4583 87.08C97.8183 88.552 97.4983 89.928 97.4983 91.208C97.6263 92.936 98.1063 94.088 98.9383 94.664C99.3863 94.984 99.9303 95.144 100.57 95.144C101.082 95.144 101.498 95.08 101.818 94.952ZM152.254 69.416C152.254 69.544 152.318 69.736 152.446 69.992C152.638 70.248 152.798 70.472 152.926 70.664L155.998 66.248C157.15 64.584 158.59 63.592 160.318 63.272C162.11 62.888 163.614 63.176 164.83 64.136C167.838 66.504 169.918 69.16 171.07 72.104L172.894 76.712L176.158 93.8C176.478 95.592 177.086 97.576 177.982 99.752C178.494 101.16 178.846 102.216 179.038 102.92L179.902 106.184C178.238 106.696 176.862 106.952 175.774 106.952C171.806 106.952 169.438 105.16 168.67 101.576C167.966 97.992 167.134 93.736 166.174 88.808L165.214 83.816C163.678 79.144 162.014 76.84 160.222 76.904C158.43 76.904 157.118 77.608 156.286 79.016C155.07 81 154.366 83.144 154.174 85.448C154.046 87.688 153.982 90.664 153.982 94.376C153.662 95.784 153.182 96.776 152.542 97.352C151.902 97.864 150.91 98.12 149.566 98.12C146.494 98.12 144.862 96.616 144.67 93.608C144.414 90.024 144.286 85.992 144.286 81.512C144.286 80.232 144.158 79.112 143.902 78.152C143.646 77.192 143.07 76.712 142.174 76.712C141.79 76.712 141.278 76.744 140.638 76.808C140.062 76.872 139.614 76.872 139.294 76.808C138.142 76.552 137.15 76.328 136.318 76.136C135.486 75.944 134.718 75.656 134.014 75.272C133.374 74.824 133.118 74.088 133.246 73.064C133.438 71.976 133.79 70.952 134.302 69.992C134.75 69.352 135.23 68.744 135.742 68.168C136.318 67.528 137.054 66.824 137.95 66.056C140.318 64.008 142.878 62.952 145.63 62.888C147.678 62.824 149.15 63.464 150.046 64.808C151.006 66.152 151.742 67.688 152.254 69.416ZM187.045 65.192C186.597 64.68 186.277 64.136 186.085 63.56C185.957 62.984 185.829 62.184 185.701 61.16C186.277 59.816 187.333 59.144 188.869 59.144C189.637 59.272 190.181 59.336 190.501 59.336C191.781 59.336 192.581 58.952 192.901 58.184C193.221 57.416 193.381 56.52 193.381 55.496C193.381 54.472 193.381 53.672 193.381 53.096L193.669 47.336C193.733 46.056 193.797 44.488 193.861 42.632C193.989 40.712 194.117 38.504 194.245 36.008C194.309 34.664 194.629 33.672 195.205 33.032C195.845 32.392 196.709 32.072 197.797 32.072C198.565 32.072 199.173 32.136 199.621 32.264C202.245 32.84 204.005 33.672 204.901 34.76C205.797 35.848 206.405 37.48 206.725 39.656C206.789 40.104 206.725 41.032 206.533 42.44L204.805 57.416C204.741 57.8 204.645 58.28 204.517 58.856C204.389 59.368 204.325 59.752 204.325 60.008C204.325 60.584 204.645 60.968 205.285 61.16C205.925 61.352 207.109 61.416 208.837 61.352C211.781 60.712 214.021 60.296 215.557 60.104C215.877 60.04 216.389 60.008 217.093 60.008C217.861 60.008 218.373 60.104 218.629 60.296C218.885 60.424 219.077 60.808 219.205 61.448C219.397 62.024 219.493 62.696 219.493 63.464C219.493 64.168 219.397 64.808 219.205 65.384C219.077 65.96 218.885 66.28 218.629 66.344C216.901 66.856 214.853 67.272 212.485 67.592C209.669 68.104 207.589 68.552 206.245 68.936C205.541 69.128 204.837 69.608 204.133 70.376C203.429 71.144 203.045 71.848 202.981 72.488C202.853 75.624 202.757 78.824 202.693 82.088C202.629 84.584 202.725 87.08 202.981 89.576C203.173 91.688 203.589 93.224 204.229 94.184C204.869 95.08 205.829 95.528 207.109 95.528C208.133 95.528 209.605 95.176 211.525 94.472C212.549 94.024 213.445 93.8 214.213 93.8C215.429 93.8 216.293 94.472 216.805 95.816C216.997 96.264 217.093 96.712 217.093 97.16C217.093 97.992 216.773 98.664 216.133 99.176C215.557 99.688 214.757 100.136 213.733 100.52C211.813 101.224 209.861 101.608 207.877 101.672C205.189 101.672 202.661 101.032 200.293 99.752C197.925 98.408 196.037 96.552 194.629 94.184C193.285 91.816 192.709 89.096 192.901 86.024C192.965 84.808 192.997 82.888 192.997 80.264C192.997 76.104 192.837 71.88 192.517 67.592C192.453 67.208 192.229 66.952 191.845 66.824C191.461 66.632 190.821 66.44 189.925 66.248C188.453 65.992 187.493 65.64 187.045 65.192ZM238.251 77.192C238.251 77.64 238.315 78.696 238.443 80.36C238.827 80.168 239.499 79.88 240.459 79.496C241.419 79.048 242.251 78.728 242.955 78.536C243.659 78.344 244.331 78.248 244.971 78.248C247.659 78.248 250.187 79.4 252.555 81.704C254.923 84.008 256.587 87.08 257.547 90.92C258.187 93.288 258.827 96.968 259.467 101.96C259.595 102.984 259.659 103.72 259.659 104.168C259.659 106.344 258.763 107.592 256.971 107.912C255.819 108.168 254.667 107.784 253.515 106.76C252.427 105.736 251.723 104.488 251.403 103.016C250.379 98.28 249.323 93.928 248.235 89.96C248.107 89.448 247.851 88.936 247.467 88.424C247.083 87.848 246.731 87.528 246.411 87.464H246.315C245.995 87.464 245.611 87.688 245.163 88.136C244.779 88.52 244.491 88.968 244.299 89.48C243.467 91.528 242.699 93.704 241.995 96.008L241.323 98.024C241.259 98.216 241.067 98.792 240.747 99.752C240.491 100.712 240.107 101.416 239.595 101.864C239.083 102.312 238.411 102.504 237.579 102.44C235.723 102.248 234.155 101.576 232.875 100.424C231.595 99.208 230.891 97.768 230.763 96.104C229.291 76.584 228.075 61.64 227.115 51.272C226.987 49.48 227.211 48.264 227.787 47.624C228.363 46.92 229.451 46.568 231.051 46.568C235.339 46.568 237.579 49.32 237.771 54.824C237.963 59.304 238.059 63.784 238.059 68.264L238.251 77.192ZM281.78 56.36C280.116 57.256 278.676 57.928 277.46 58.376C276.308 58.824 275.06 59.048 273.716 59.048C272.564 59.048 271.54 58.888 270.644 58.568C271.028 57.224 271.252 56.52 271.316 56.456C273.492 53.256 276.116 50.44 279.188 48.008C282.324 45.512 285.876 43.24 289.844 41.192C290.996 40.616 291.988 40.328 292.82 40.328C294.228 40.328 295.54 41.128 296.756 42.728C297.204 43.24 297.428 43.88 297.428 44.648C297.428 45.672 296.98 46.472 296.084 47.048C295.252 47.56 294.068 48.392 292.532 49.544C287.54 52.936 283.956 55.208 281.78 56.36ZM311.444 87.464C312.276 88.232 312.692 89.064 312.692 89.96C312.692 90.792 312.212 91.816 311.252 93.032C305.748 100.072 298.58 103.592 289.748 103.592C288.084 103.592 286.836 103.528 286.004 103.4C283.124 103.08 280.404 101.96 277.844 100.04C275.284 98.056 273.204 95.592 271.604 92.648C270.068 89.64 269.3 86.568 269.3 83.432C269.3 81.128 269.716 79.016 270.548 77.096C271.892 73.896 273.236 71.144 274.58 68.84C275.924 66.536 277.62 64.456 279.668 62.6C281.652 60.808 284.34 59.912 287.732 59.912C290.932 59.912 294.068 60.68 297.14 62.216C300.212 63.688 302.26 65.48 303.284 67.592C303.86 68.872 304.148 70.152 304.148 71.432C304.148 72.584 303.924 73.416 303.476 73.928L301.652 76.616C299.54 79.752 297.652 82.248 295.988 84.104C294.324 85.96 292.308 87.432 289.94 88.52C288.788 89.096 287.476 89.576 286.004 89.96C284.532 90.28 283.668 90.472 283.412 90.536C282.324 90.728 281.396 90.952 280.628 91.208C281.076 93.192 281.908 94.728 283.124 95.816C284.404 96.904 285.908 97.448 287.636 97.448C289.044 97.448 290.644 97 292.436 96.104C296.084 94.184 300.436 91.432 305.492 87.848C306.836 86.824 307.988 86.312 308.948 86.312C309.844 86.312 310.676 86.696 311.444 87.464ZM289.076 66.344C287.796 66.984 286.484 68.04 285.14 69.512C283.796 70.92 282.644 72.616 281.684 74.6C280.788 76.52 280.34 78.472 280.34 80.456C280.34 81.544 280.468 82.504 280.724 83.336L283.796 80.36C285.844 78.376 287.54 76.648 288.884 75.176C290.484 73.384 291.572 71.368 292.148 69.128C292.212 68.936 292.244 68.68 292.244 68.36C292.244 67.72 292.052 67.176 291.668 66.728C291.284 66.28 290.804 66.056 290.228 66.056C289.844 66.056 289.46 66.152 289.076 66.344ZM328.029 52.712C330.525 48.552 334.397 44.904 339.645 41.768C343.805 39.272 348.637 38.024 354.141 38.024C358.045 38.024 361.821 38.696 365.469 40.04C369.117 41.32 372.125 43.144 374.493 45.512C375.325 46.344 376.221 47.144 377.181 47.912C378.653 49.192 379.517 49.992 379.773 50.312C382.973 53.704 384.573 57.448 384.573 61.544C384.573 64.744 383.549 68.008 381.501 71.336C378.813 75.752 376.029 79.624 373.149 82.952C370.269 86.28 367.037 89.128 363.453 91.496C357.373 95.528 351.549 97.544 345.981 97.544C344.317 97.544 342.653 97.352 340.989 96.968C335.421 95.752 330.909 93.16 327.453 89.192C323.997 85.16 322.269 80.584 322.269 75.464C322.269 71.56 323.357 67.656 325.533 63.752C325.661 63.432 325.917 63.112 326.301 62.792C326.749 62.472 327.101 62.216 327.357 62.024L329.565 63.08L331.677 64.136C333.661 65.224 334.941 66.12 335.517 66.824C336.157 67.528 336.477 68.52 336.477 69.8C336.477 70.696 336.381 71.912 336.189 73.448C336.125 74.024 336.093 74.856 336.093 75.944C336.093 78.312 336.381 81.16 336.957 84.488C337.085 85.448 337.469 86.184 338.109 86.696C338.813 87.208 339.677 87.464 340.701 87.464C341.213 87.464 341.629 87.432 341.949 87.368C344.957 86.792 347.517 86.12 349.629 85.352C351.805 84.584 353.757 83.432 355.485 81.896C358.685 79.144 361.469 76.488 363.837 73.928C366.205 71.368 368.285 68.616 370.077 65.672C371.293 63.624 371.901 61.64 371.901 59.72C371.901 58.12 371.549 56.552 370.845 55.016C370.141 53.48 369.117 51.752 367.773 49.832C365.533 46.76 362.621 45.224 359.037 45.224C357.757 45.224 356.445 45.416 355.101 45.8C354.653 45.928 352.605 46.6 348.957 47.816C348.573 47.944 348.157 48.072 347.709 48.2C347.325 48.328 346.909 48.456 346.461 48.584L335.517 51.752C334.109 52.2 331.933 52.808 328.989 53.576L328.029 52.712ZM407.566 64.808C407.566 65.192 407.502 65.704 407.374 66.344C407.246 66.92 407.214 67.304 407.278 67.496C411.694 66.536 415.438 66.056 418.51 66.056C423.31 66.056 426.926 68.36 429.358 72.968C431.342 76.872 432.334 81.192 432.334 85.928C432.334 87.144 432.206 88.904 431.95 91.208C431.758 92.744 431.15 93.992 430.126 94.952C429.102 95.848 427.886 96.296 426.478 96.296C425.006 96.296 423.95 96.04 423.31 95.528C422.734 94.952 422.382 94.312 422.254 93.608C422.19 92.904 422.158 91.784 422.158 90.248L422.062 88.232C421.934 84.392 421.678 81.064 421.294 78.248C421.102 77.096 420.654 76.296 419.95 75.848C419.31 75.336 418.446 75.08 417.358 75.08C416.334 75.08 415.118 75.24 413.71 75.56C411.534 76.136 410.062 76.584 409.294 76.904C408.59 77.224 407.534 77.896 406.126 78.92C405.678 79.24 405.358 79.88 405.166 80.84C404.974 81.8 404.878 82.344 404.878 82.472C404.046 86.568 403.15 91.464 402.19 97.16C402.126 97.416 401.998 98.024 401.806 98.984C401.614 99.944 401.23 100.616 400.654 101C400.142 101.448 399.374 101.608 398.35 101.48C394.318 100.968 392.27 99.272 392.206 96.392C392.142 92.68 392.43 88.296 393.07 83.24C393.518 79.592 393.934 76.648 394.318 74.408C394.446 73.384 394.606 72.136 394.798 70.664C395.054 69.192 395.278 67.496 395.47 65.576C395.662 64.104 395.854 63.016 396.046 62.312C396.238 61.608 396.686 61.032 397.39 60.584C398.094 60.072 399.182 59.816 400.654 59.816C402.51 59.816 404.046 60.232 405.262 61.064C406.478 61.896 407.246 63.08 407.566 64.616V64.808ZM463.976 66.248C464.104 65.992 464.264 65.608 464.456 65.096C464.648 64.52 464.84 64.008 465.032 63.56C463.56 63.496 461.352 63.656 458.408 64.04C456.296 64.36 454.376 64.52 452.648 64.52C450.536 64.52 448.584 64.168 446.792 63.464C445.064 62.76 443.4 61.48 441.8 59.624C442.184 59.368 442.664 58.952 443.24 58.376C443.88 57.8 444.456 57.416 444.968 57.224C449.384 55.624 453.896 54.824 458.504 54.824C464.008 54.824 469.864 56.008 476.072 58.376C477.16 58.824 477.992 59.464 478.568 60.296C479.144 61.128 479.432 62.12 479.432 63.272C479.432 64.808 478.888 66.408 477.8 68.072L475.88 70.76C471.272 77.48 468.968 80.84 468.968 80.84C467.048 83.848 465.224 86.824 463.496 89.768L461.96 92.264L462.44 93.512C463.016 93.448 463.848 93.416 464.936 93.416C467.816 93.288 469.928 93.096 471.272 92.84C475.304 92.264 478.792 91.624 481.736 90.92C482.312 90.728 482.888 90.632 483.464 90.632C485.128 90.632 486.344 91.432 487.112 93.032C487.368 93.672 487.496 94.12 487.496 94.376C487.496 94.952 487.336 95.432 487.016 95.816C486.696 96.136 486.312 96.488 485.864 96.872C485.416 97.192 485.064 97.448 484.808 97.64C483.336 98.856 481.736 99.688 480.008 100.136C478.28 100.52 476.296 100.712 474.056 100.712L470.6 100.808C467.528 100.936 465.224 101 463.688 101C460.872 101 458.472 100.84 456.488 100.52C454.12 100.136 452.392 99.304 451.304 98.024C450.216 96.744 449.672 95.176 449.672 93.32C449.672 91.08 450.344 88.808 451.688 86.504C453.736 82.92 456.936 77.608 461.288 70.568L463.976 66.248ZM508.923 63.56C509.499 63.496 509.979 63.496 510.363 63.56C510.747 63.56 511.099 63.56 511.419 63.56C511.867 63.496 512.539 63.464 513.435 63.464C517.787 63.464 522.075 64.712 526.299 67.208C528.155 68.36 529.083 69.576 529.083 70.856C529.083 72.264 528.123 73.512 526.203 74.6C524.603 75.56 522.939 76.68 521.211 77.96C518.139 80.008 515.515 81.608 513.339 82.76C511.227 83.912 508.891 84.712 506.331 85.16C505.947 85.288 505.531 85.64 505.083 86.216C504.699 86.728 504.539 87.112 504.603 87.368C504.731 87.752 504.955 88.552 505.275 89.768C505.595 90.92 505.947 91.912 506.331 92.744C506.779 93.512 507.291 94.152 507.867 94.664C508.507 95.176 509.467 95.432 510.747 95.432C512.027 95.432 513.211 95.24 514.299 94.856C518.139 93.064 521.787 90.824 525.243 88.136C526.267 87.432 527.163 87.08 527.931 87.08C528.891 87.08 529.915 87.592 531.003 88.616C531.771 89.32 532.155 90.056 532.155 90.824C532.155 91.656 531.547 92.68 530.331 93.896C524.891 99.208 519.099 101.864 512.955 101.864C511.291 101.864 509.243 101.544 506.811 100.904C502.715 99.88 499.579 97.608 497.403 94.088C495.227 90.568 494.139 86.536 494.139 81.992C494.139 80.584 494.235 79.24 494.427 77.96C494.491 77.512 494.619 76.584 494.811 75.176C495.067 73.704 495.451 72.488 495.963 71.528C498.395 66.728 502.715 64.072 508.923 63.56ZM514.491 70.472C513.339 70.088 512.315 69.896 511.419 69.896C509.947 69.896 508.795 70.344 507.963 71.24C507.131 72.136 506.459 73.48 505.947 75.272C507.483 75.464 509.115 75.08 510.843 74.12C512.635 73.096 513.851 71.88 514.491 70.472Z" fill="black"/>
</svg>
