<svg width="687" height="687" viewBox="0 0 687 687" fill="none" xmlns="http://www.w3.org/2000/svg">
<rect width="687" height="687" fill="#F8F8F8"/>
<path d="M271.713 272.529L271.616 276.137C271.516 279.855 273.031 283.423 275.672 286.043C311.44 321.531 332.843 369.196 341.505 395.925C343.268 401.365 348.124 405.296 353.837 405.534L356.192 405.632C363.132 405.921 369.037 400.7 370.132 393.841C376.974 351.005 398.995 304.154 412.918 279.418C415.424 274.966 415.278 269.468 412.385 265.257L408.058 258.959C406.767 257.079 405.002 255.553 402.915 254.633C355.215 233.579 303.532 248.969 278.128 261.964C274.173 263.987 271.833 268.089 271.713 272.529Z" fill="#E1E1E1"/>
<path d="M212.581 329.83C217.199 321.482 243.1 305.679 260.159 296.191C264.282 293.898 269.388 294.07 272.81 297.316C290.149 313.761 310.232 352.763 322.133 379.227C325.139 385.911 321.8 393.71 314.823 395.953C286.68 404.999 275.514 402.053 273.427 399.014C254.404 369.169 223.124 358.102 219.671 353.075C216.218 348.048 205.981 341.763 212.581 329.83Z" fill="#E1E1E1"/>
<path d="M200.99 420.66C187.076 407.344 195.496 384.185 204.915 368.464C208.386 362.671 216.005 361.42 221.568 365.249C240.127 378.022 251.233 387.862 257.469 394.732C262.216 399.962 258.768 406.382 252.619 409.857C236.072 419.207 218.392 437.316 200.99 420.66Z" fill="#E1E1E1"/>
<path d="M384.85 376.12C391.697 353.611 405.534 317.502 415.536 292.436C418.515 284.971 427.505 282.061 434.339 286.292L470.369 308.599C474.927 311.421 477.286 316.753 476.307 322.024L475.136 328.338C474.507 331.727 472.523 334.688 469.839 336.851C452.819 350.571 440.426 372.791 433.671 388.612C430.998 394.872 424.284 398.657 417.666 397.065L393.901 391.348C387.03 389.696 382.794 382.881 384.85 376.12Z" fill="#E1E1E1"/>
<path d="M498.43 424.978C513.325 427.681 514.323 387.562 486.576 350.023C482.539 344.562 474.818 343.858 469.877 348.518C465.157 352.969 459.539 358.91 455.436 365.263C450.933 372.237 447.784 382.246 445.869 389.804C444.322 395.908 447.916 401.971 453.454 404.968C465.83 411.663 479.01 421.454 498.43 424.978Z" fill="#E1E1E1"/>
</svg>
